<svg id="in" xmlns="http://www.w3.org/2000/svg" width="30" height="22.5" viewBox="0 0 30 22.5">
  <path id="Path_109" data-name="Path 109" d="M0,0H30V7.507H0Z" fill="#f93"/>
  <path id="Path_110" data-name="Path 110" d="M0,160H30v7.507H0Z" transform="translate(0 -152.503)" fill="#fff"/>
  <path id="Path_111" data-name="Path 111" d="M0,320H30v7.507H0Z" transform="translate(0 -305.007)" fill="#128807"/>
  <g id="Group_48" data-name="Group 48" transform="translate(9.738 4.872)">
    <circle id="Ellipse_1" data-name="Ellipse 1" cx="3" cy="3" r="3" transform="translate(2.427 3.254)" fill="#008"/>
    <circle id="Ellipse_2" data-name="Ellipse 2" cx="3" cy="3" r="3" transform="translate(2.427 3.254)" fill="#fff"/>
    <circle id="Ellipse_3" data-name="Ellipse 3" cx="0.525" cy="0.525" r="0.525" transform="translate(4.736 5.854)" fill="#008"/>
    <g id="d" transform="translate(0.485 4.275)">
      <g id="c" transform="translate(2.487 1.862)">
        <g id="b" transform="translate(1.523 0.405)">
          <g id="a" transform="translate(0.677 0.03)">
            <circle id="Ellipse_4" data-name="Ellipse 4" cx="0.135" cy="0.135" r="0.135" transform="matrix(0.991, 0.131, -0.131, 0.991, 2.579, 0)" fill="#008"/>
            <path id="Path_112" data-name="Path 112" d="M-1.83,8.727l.09-1.576L-1.83,6.4l-.09.751Z" transform="translate(1.92 -6.292)" fill="#008"/>
          </g>
          <g id="Group_25" data-name="Group 25" transform="matrix(0.966, 0.259, -0.259, 0.966, 0.63, 0)">
            <circle id="Ellipse_5" data-name="Ellipse 5" cx="0.135" cy="0.135" r="0.135" transform="matrix(0.991, 0.131, -0.131, 0.991, 2.579, 0)" fill="#008"/>
            <path id="Path_113" data-name="Path 113" d="M.09,2.327.18.751.09,0,0,.751Z" transform="translate(0 0.108)" fill="#008"/>
          </g>
        </g>
        <g id="Group_27" data-name="Group 27" transform="matrix(0.866, 0.5, -0.5, 0.866, 1.544, 0)">
          <g id="a-2" data-name="a" transform="translate(0.677 0.03)">
            <circle id="Ellipse_6" data-name="Ellipse 6" cx="0.135" cy="0.135" r="0.135" transform="matrix(0.991, 0.131, -0.131, 0.991, 2.579, 0)" fill="#008"/>
            <path id="Path_114" data-name="Path 114" d="M.09,2.327.18.751.09,0,0,.751Z" transform="translate(0 0.108)" fill="#008"/>
          </g>
          <g id="Group_26" data-name="Group 26" transform="matrix(0.966, 0.259, -0.259, 0.966, 0.63, 0)">
            <circle id="Ellipse_7" data-name="Ellipse 7" cx="0.135" cy="0.135" r="0.135" transform="matrix(0.991, 0.131, -0.131, 0.991, 2.579, 0)" fill="#008"/>
            <path id="Path_115" data-name="Path 115" d="M.09,2.327.18.751.09,0,0,.751Z" transform="translate(0 0.108)" fill="#008"/>
          </g>
        </g>
      </g>
      <g id="Group_31" data-name="Group 31" transform="matrix(0.5, 0.866, -0.866, 0.5, 3.842, 0)">
        <g id="b-2" data-name="b" transform="translate(1.523 0.405)">
          <g id="a-3" data-name="a" transform="translate(0.677 0.03)">
            <circle id="Ellipse_8" data-name="Ellipse 8" cx="0.135" cy="0.135" r="0.135" transform="matrix(0.991, 0.131, -0.131, 0.991, 2.579, 0)" fill="#008"/>
            <path id="Path_116" data-name="Path 116" d="M.09,2.327.18.751.09,0,0,.751Z" transform="translate(0 0.108)" fill="#008"/>
          </g>
          <g id="Group_28" data-name="Group 28" transform="matrix(0.966, 0.259, -0.259, 0.966, 0.63, 0)">
            <circle id="Ellipse_9" data-name="Ellipse 9" cx="0.135" cy="0.135" r="0.135" transform="matrix(0.991, 0.131, -0.131, 0.991, 2.579, 0)" fill="#008"/>
            <path id="Path_117" data-name="Path 117" d="M.09,2.327.18.751.09,0,0,.751Z" transform="translate(0 0.108)" fill="#008"/>
          </g>
        </g>
        <g id="Group_30" data-name="Group 30" transform="matrix(0.866, 0.5, -0.5, 0.866, 1.544, 0)">
          <g id="a-4" data-name="a" transform="translate(0.677 0.03)">
            <circle id="Ellipse_10" data-name="Ellipse 10" cx="0.135" cy="0.135" r="0.135" transform="matrix(0.991, 0.131, -0.131, 0.991, 2.579, 0)" fill="#008"/>
            <path id="Path_118" data-name="Path 118" d="M.09,2.327.18.751.09,0,0,.751Z" transform="translate(0 0.108)" fill="#008"/>
          </g>
          <g id="Group_29" data-name="Group 29" transform="matrix(0.966, 0.259, -0.259, 0.966, 0.63, 0)">
            <circle id="Ellipse_11" data-name="Ellipse 11" cx="0.135" cy="0.135" r="0.135" transform="matrix(0.991, 0.131, -0.131, 0.991, 2.579, 0)" fill="#008"/>
            <path id="Path_119" data-name="Path 119" d="M.09,2.327.18.751.09,0,0,.751Z" transform="translate(0 0.108)" fill="#008"/>
          </g>
        </g>
      </g>
    </g>
    <g id="Group_39" data-name="Group 39" transform="matrix(-0.5, 0.866, -0.866, -0.5, 9.473, 3.294)">
      <g id="c-2" data-name="c" transform="translate(2.487 1.862)">
        <g id="b-3" data-name="b" transform="translate(1.523 0.405)">
          <g id="a-5" data-name="a" transform="translate(0.677 0.03)">
            <circle id="Ellipse_12" data-name="Ellipse 12" cx="0.135" cy="0.135" r="0.135" transform="matrix(0.991, 0.131, -0.131, 0.991, 2.579, 0)" fill="#008"/>
            <path id="Path_120" data-name="Path 120" d="M.09,2.327.18.751.09,0,0,.751Z" transform="translate(0 0.108)" fill="#008"/>
          </g>
          <g id="Group_32" data-name="Group 32" transform="matrix(0.966, 0.259, -0.259, 0.966, 0.63, 0)">
            <circle id="Ellipse_13" data-name="Ellipse 13" cx="0.135" cy="0.135" r="0.135" transform="matrix(0.991, 0.131, -0.131, 0.991, 2.579, 0)" fill="#008"/>
            <path id="Path_121" data-name="Path 121" d="M.09,2.327.18.751.09,0,0,.751Z" transform="translate(0 0.108)" fill="#008"/>
          </g>
        </g>
        <g id="Group_34" data-name="Group 34" transform="matrix(0.866, 0.5, -0.5, 0.866, 1.544, 0)">
          <g id="a-6" data-name="a" transform="translate(0.677 0.03)">
            <circle id="Ellipse_14" data-name="Ellipse 14" cx="0.135" cy="0.135" r="0.135" transform="matrix(0.991, 0.131, -0.131, 0.991, 2.579, 0)" fill="#008"/>
            <path id="Path_122" data-name="Path 122" d="M.09,2.327.18.751.09,0,0,.751Z" transform="translate(0 0.108)" fill="#008"/>
          </g>
          <g id="Group_33" data-name="Group 33" transform="matrix(0.966, 0.259, -0.259, 0.966, 0.63, 0)">
            <circle id="Ellipse_15" data-name="Ellipse 15" cx="0.135" cy="0.135" r="0.135" transform="matrix(0.991, 0.131, -0.131, 0.991, 2.579, 0)" fill="#008"/>
            <path id="Path_123" data-name="Path 123" d="M.09,2.327.18.751.09,0,0,.751Z" transform="translate(0 0.108)" fill="#008"/>
          </g>
        </g>
      </g>
      <g id="Group_38" data-name="Group 38" transform="matrix(0.5, 0.866, -0.866, 0.5, 3.842, 0)">
        <g id="b-4" data-name="b" transform="translate(1.523 0.405)">
          <g id="a-7" data-name="a" transform="translate(0.677 0.03)">
            <circle id="Ellipse_16" data-name="Ellipse 16" cx="0.135" cy="0.135" r="0.135" transform="matrix(0.991, 0.131, -0.131, 0.991, 2.579, 0)" fill="#008"/>
            <path id="Path_124" data-name="Path 124" d="M.09,2.327.18.751.09,0,0,.751Z" transform="translate(0 0.108)" fill="#008"/>
          </g>
          <g id="Group_35" data-name="Group 35" transform="matrix(0.966, 0.259, -0.259, 0.966, 0.63, 0)">
            <circle id="Ellipse_17" data-name="Ellipse 17" cx="0.135" cy="0.135" r="0.135" transform="matrix(0.991, 0.131, -0.131, 0.991, 2.579, 0)" fill="#008"/>
            <path id="Path_125" data-name="Path 125" d="M.09,2.327.18.751.09,0,0,.751Z" transform="translate(0 0.108)" fill="#008"/>
          </g>
        </g>
        <g id="Group_37" data-name="Group 37" transform="matrix(0.866, 0.5, -0.5, 0.866, 1.544, 0)">
          <g id="a-8" data-name="a" transform="translate(0.677 0.03)">
            <circle id="Ellipse_18" data-name="Ellipse 18" cx="0.135" cy="0.135" r="0.135" transform="matrix(0.991, 0.131, -0.131, 0.991, 2.579, 0)" fill="#008"/>
            <path id="Path_126" data-name="Path 126" d="M.09,2.327.18.751.09,0,0,.751Z" transform="translate(0 0.108)" fill="#008"/>
          </g>
          <g id="Group_36" data-name="Group 36" transform="matrix(0.966, 0.259, -0.259, 0.966, 0.63, 0)">
            <circle id="Ellipse_19" data-name="Ellipse 19" cx="0.135" cy="0.135" r="0.135" transform="matrix(0.991, 0.131, -0.131, 0.991, 2.579, 0)" fill="#008"/>
            <path id="Path_127" data-name="Path 127" d="M.09,2.327.18.751.09,0,0,.751Z" transform="translate(0 0.108)" fill="#008"/>
          </g>
        </g>
      </g>
    </g>
    <g id="Group_47" data-name="Group 47" transform="matrix(-0.5, -0.866, 0.866, -0.5, 5.828, 11.569)">
      <g id="c-3" data-name="c" transform="translate(2.487 1.862)">
        <g id="b-5" data-name="b" transform="translate(1.523 0.405)">
          <g id="a-9" data-name="a" transform="translate(0.677 0.03)">
            <circle id="Ellipse_20" data-name="Ellipse 20" cx="0.135" cy="0.135" r="0.135" transform="matrix(0.991, 0.131, -0.131, 0.991, 2.579, 0)" fill="#008"/>
            <path id="Path_128" data-name="Path 128" d="M.09,2.327.18.751.09,0,0,.751Z" transform="translate(0 0.108)" fill="#008"/>
          </g>
          <g id="Group_40" data-name="Group 40" transform="matrix(0.966, 0.259, -0.259, 0.966, 0.63, 0)">
            <circle id="Ellipse_21" data-name="Ellipse 21" cx="0.135" cy="0.135" r="0.135" transform="matrix(0.991, 0.131, -0.131, 0.991, 2.579, 0)" fill="#008"/>
            <path id="Path_129" data-name="Path 129" d="M.09,2.327.18.751.09,0,0,.751Z" transform="translate(0 0.108)" fill="#008"/>
          </g>
        </g>
        <g id="Group_42" data-name="Group 42" transform="matrix(0.866, 0.5, -0.5, 0.866, 1.544, 0)">
          <g id="a-10" data-name="a" transform="translate(0.677 0.03)">
            <circle id="Ellipse_22" data-name="Ellipse 22" cx="0.135" cy="0.135" r="0.135" transform="matrix(0.991, 0.131, -0.131, 0.991, 2.579, 0)" fill="#008"/>
            <path id="Path_130" data-name="Path 130" d="M.09,2.327.18.751.09,0,0,.751Z" transform="translate(0 0.108)" fill="#008"/>
          </g>
          <g id="Group_41" data-name="Group 41" transform="matrix(0.966, 0.259, -0.259, 0.966, 0.63, 0)">
            <circle id="Ellipse_23" data-name="Ellipse 23" cx="0.135" cy="0.135" r="0.135" transform="matrix(0.991, 0.131, -0.131, 0.991, 2.579, 0)" fill="#008"/>
            <path id="Path_131" data-name="Path 131" d="M.09,2.327.18.751.09,0,0,.751Z" transform="translate(0 0.108)" fill="#008"/>
          </g>
        </g>
      </g>
      <g id="Group_46" data-name="Group 46" transform="matrix(0.5, 0.866, -0.866, 0.5, 3.842, 0)">
        <g id="b-6" data-name="b" transform="translate(1.523 0.405)">
          <g id="a-11" data-name="a" transform="translate(0.677 0.03)">
            <circle id="Ellipse_24" data-name="Ellipse 24" cx="0.135" cy="0.135" r="0.135" transform="matrix(0.991, 0.131, -0.131, 0.991, 2.579, 0)" fill="#008"/>
            <path id="Path_132" data-name="Path 132" d="M.09,2.327.18.751.09,0,0,.751Z" transform="translate(0 0.108)" fill="#008"/>
          </g>
          <g id="Group_43" data-name="Group 43" transform="matrix(0.966, 0.259, -0.259, 0.966, 0.63, 0)">
            <circle id="Ellipse_25" data-name="Ellipse 25" cx="0.135" cy="0.135" r="0.135" transform="matrix(0.991, 0.131, -0.131, 0.991, 2.579, 0)" fill="#008"/>
            <path id="Path_133" data-name="Path 133" d="M.09,2.327.18.751.09,0,0,.751Z" transform="translate(0 0.108)" fill="#008"/>
          </g>
        </g>
        <g id="Group_45" data-name="Group 45" transform="matrix(0.866, 0.5, -0.5, 0.866, 1.544, 0)">
          <g id="a-12" data-name="a" transform="translate(0.677 0.03)">
            <circle id="Ellipse_26" data-name="Ellipse 26" cx="0.135" cy="0.135" r="0.135" transform="matrix(0.991, 0.131, -0.131, 0.991, 2.579, 0)" fill="#008"/>
            <path id="Path_134" data-name="Path 134" d="M.09,2.327.18.751.09,0,0,.751Z" transform="translate(0 0.108)" fill="#008"/>
          </g>
          <g id="Group_44" data-name="Group 44" transform="matrix(0.966, 0.259, -0.259, 0.966, 0.63, 0)">
            <circle id="Ellipse_27" data-name="Ellipse 27" cx="0.135" cy="0.135" r="0.135" transform="matrix(0.991, 0.131, -0.131, 0.991, 2.579, 0)" fill="#008"/>
            <path id="Path_135" data-name="Path 135" d="M.09,2.327.18.751.09,0,0,.751Z" transform="translate(0 0.108)" fill="#008"/>
          </g>
        </g>
      </g>
    </g>
  </g>
</svg>
