<svg xmlns="http://www.w3.org/2000/svg" xmlns:xlink="http://www.w3.org/1999/xlink" width="30" height="22.499" viewBox="0 0 30 22.499">
  <defs>
    <clipPath id="clip-path">
      <path id="Path_244" data-name="Path 244" d="M0,0H30V22.5H0Z" fill="rgba(0,0,0,0.7)"/>
    </clipPath>
  </defs>
  <g id="um" clip-path="url(#clip-path)">
    <g id="Group_115" data-name="Group 115">
      <path id="Path_240" data-name="Path 240" d="M0,0H42.748V1.731H0ZM0,3.463H42.748V5.194H0ZM0,6.921H42.748V8.657H0Zm0,3.463H42.748v1.731H0Zm0,3.463H42.748v1.731H0ZM0,17.3H42.748v1.731H0Zm0,3.463H42.748V22.5H0Z" fill="#bd3d44" fill-rule="evenodd"/>
      <path id="Path_241" data-name="Path 241" d="M0,36.938H42.748v1.731H0ZM0,40.4H42.748v1.727H0Zm0,3.458H42.748V45.59H0Zm0,3.463H42.748v1.731H0Zm0,3.463H42.748v1.731H0Zm0,3.458H42.748v1.731H0Z" transform="translate(0 -35.206)" fill="#fff" fill-rule="evenodd"/>
    </g>
    <path id="Path_242" data-name="Path 242" d="M0,0H17.1V12.115H0Z" fill="#192f5d" fill-rule="evenodd"/>
    <path id="Path_243" data-name="Path 243" d="M16.972,11.063l.158.479h.5l-.4.294.154.483-.409-.3-.4.294.154-.479-.409-.294h.51Zm2.852,0,.154.479h.505l-.409.294.154.483-.4-.3-.409.294.154-.479-.4-.294h.5Zm2.848,0,.158.479h.5l-.4.294.154.483-.409-.3-.4.294.154-.479-.409-.294h.505Zm2.852,0,.154.479h.505l-.409.294.158.483-.409-.3-.409.294.158-.479-.409-.294h.5Zm2.848,0,.158.479h.5l-.4.294.154.483-.409-.3-.4.294.154-.479-.4-.294h.5Zm2.852,0,.154.479h.505l-.409.294.158.483-.409-.3-.409.294.158-.479-.409-.294h.505ZM18.4,12.275l.154.479h.505l-.409.294.149.479-.4-.294L18,13.528l.145-.479-.4-.294h.5Zm2.848,0,.158.479h.5l-.409.294.158.479-.409-.294-.409.294L21,13.049l-.409-.294h.505Zm2.852,0,.154.479h.505l-.409.294.154.479-.4-.294-.409.294.154-.479-.4-.294h.5Zm2.848,0,.158.479h.5l-.409.294.158.479-.409-.294-.4.294.154-.479-.409-.294h.51Zm2.852,0,.154.479h.505l-.409.294.154.479-.4-.294-.409.294.154-.479-.4-.294h.5ZM16.972,13.484l.158.488h.5l-.4.294.154.479-.409-.3-.4.3.154-.483-.409-.294h.51Zm2.852,0,.154.483h.505l-.409.294.154.479-.4-.3-.409.3.154-.483-.4-.294h.5Zm2.848,0,.158.483h.5l-.4.294.154.479-.409-.3-.4.3.154-.483-.409-.294h.505Zm2.852,0,.154.483h.505l-.409.294.158.479-.409-.3-.409.3.158-.483-.409-.294h.5Zm2.848,0,.158.483h.5l-.4.294.154.479-.409-.3-.4.3.154-.483-.4-.294h.5Zm2.852,0,.154.483h.505l-.409.294.158.479-.409-.3-.409.3.158-.483-.409-.294h.505ZM18.4,14.7l.154.479h.505l-.409.294.154.483-.4-.3-.409.294.154-.479-.4-.294h.5Zm2.848,0,.158.479h.5l-.409.294.158.483-.409-.3-.409.294L21,15.47l-.409-.294h.505Zm2.852,0,.154.479h.505l-.409.294.154.483-.4-.3-.409.294.154-.479-.4-.294h.5Zm2.848,0,.158.479h.5l-.4.294.154.483-.409-.3-.4.294.154-.479-.409-.294h.51Zm2.852,0,.154.479h.505l-.409.294.154.483-.4-.3-.409.294.154-.479-.4-.294h.5ZM16.972,15.909l.158.479h.5l-.4.294.154.483-.409-.3-.4.294.154-.479-.409-.294h.51Zm2.852,0,.154.479h.505l-.409.294.154.479-.4-.294-.409.294.154-.479-.4-.294h.5Zm2.848,0,.158.479h.5l-.4.294.154.483-.409-.3-.4.294.154-.479-.409-.294h.505Zm2.852,0,.154.479h.505l-.409.294.158.483-.409-.3-.409.294.158-.479-.409-.294h.5Zm2.848,0,.158.479h.5l-.4.294.154.483-.409-.3-.4.294.154-.479-.4-.294h.5Zm2.852,0,.154.479h.505l-.409.294.158.483-.409-.3-.409.294.158-.479-.409-.294h.505ZM18.4,17.122l.154.479h.505l-.409.294.154.479-.4-.3-.409.3.154-.483-.4-.294h.5Zm2.848,0,.158.479h.5L21.5,17.9l.158.479-.409-.3-.409.3L21,17.891l-.409-.294h.505Zm2.852,0,.154.479h.505l-.409.294.154.479-.4-.3-.409.3.154-.483-.4-.294h.5Zm2.848,0,.158.479h.5l-.4.294.154.479-.409-.3-.4.3.154-.483-.409-.294h.51Zm2.852,0,.154.479h.505l-.409.294.154.479-.4-.3-.409.3.154-.483-.4-.294h.5ZM16.972,18.331l.158.483h.5l-.4.294.154.475-.409-.294-.4.294.154-.479-.409-.294h.51Zm2.852,0,.154.483h.505l-.409.294.158.475-.409-.294-.409.294.158-.479-.409-.294h.5Zm2.848,0,.158.483h.5l-.4.294.154.475-.409-.294-.4.294.154-.479-.409-.294h.505Zm2.852,0,.154.483h.505l-.409.294.158.475-.409-.294-.409.294.158-.479-.409-.294h.5Zm2.848,0,.158.483h.5l-.4.294.154.475-.409-.294-.4.294.154-.479-.4-.294h.5Zm2.852,0,.154.483h.505l-.409.294.158.475-.409-.294-.409.294.158-.479-.409-.294h.505ZM18.4,19.544l.154.479h.505l-.409.294.154.483-.4-.3-.409.294.154-.479-.4-.294h.5Zm2.848,0,.158.479h.5l-.409.294.158.483-.409-.3-.409.294L21,20.317l-.409-.294h.505Zm2.852,0,.154.479h.505l-.409.294.154.483-.4-.3-.409.294.154-.479-.4-.294h.5Zm2.848,0,.158.479h.5l-.4.294.154.483-.409-.3-.4.294.154-.479-.409-.294h.51Zm2.852,0,.154.479h.505l-.409.294.154.483-.4-.3-.409.294.154-.479-.4-.294h.5ZM16.972,20.756l.158.479h.5l-.4.294.154.479-.409-.294-.4.294.154-.483-.409-.294h.51Zm2.852,0,.154.479h.505l-.409.294.158.479-.409-.294-.409.294.158-.483-.409-.294h.5Zm2.848,0,.158.479h.5l-.4.294.154.479-.409-.294-.4.294.154-.483-.409-.294h.505Zm2.852,0,.154.479h.505l-.409.294.158.479-.409-.294-.409.294.158-.483-.409-.294h.5Zm2.848,0,.158.479h.5l-.4.294.154.479-.409-.294-.4.294.154-.483-.4-.294h.5Zm2.852,0,.154.479h.505l-.409.294.158.479-.409-.294-.409.294.158-.483-.409-.294h.505Z" transform="translate(-15.548 -10.544)" fill="#fff" fill-rule="evenodd"/>
  </g>
</svg>
