<svg id="br" xmlns="http://www.w3.org/2000/svg" width="30" height="22.5" viewBox="0 0 30 22.5">
  <path id="Path_72" data-name="Path 72" d="M0,0H30V22.5H0Z" fill="#229e45" fill-rule="evenodd"/>
  <path id="Path_73" data-name="Path 73" d="M31.36,62.356,45.49,53.192,31.276,44,17.1,53.211Z" transform="translate(-16.295 -41.928)" fill="#f8e509" fill-rule="evenodd"/>
  <path id="Path_74" data-name="Path 74" d="M210,118.453a6,6,0,1,1-5.993-5.953A5.975,5.975,0,0,1,210,118.453Z" transform="translate(-188.747 -107.203)" fill="#2b49a3" fill-rule="evenodd"/>
  <path id="Path_75" data-name="Path 75" d="M215.738,200.616l-.188-.108-.188.094.042-.212-.151-.16.212-.024.1-.188.089.2.207.038-.155.141m4.049,1.238-.184-.108-.188.094.038-.212-.146-.155.212-.024.1-.193.094.2.207.038-.16.146m-1.7-1.413-.16-.094-.165.085.038-.184-.132-.137.188-.019.085-.17.075.174.184.033-.141.127m4.1-.4-.16-.094-.165.085.038-.184-.127-.132.184-.019.085-.165.075.17.179.033-.137.122m-4.111-1.036-.188-.1-.188.094.038-.217-.146-.155.212-.024.1-.193.094.2.207.038-.16.151M213,196.341l-.188-.1-.188.094.047-.217-.155-.155.217-.024.094-.193.094.2.207.038-.155.146m.626,2.693-.188-.108-.188.094.042-.212-.151-.155.212-.028.1-.188.094.2.207.038-.155.146m6.215-3.169-.17-.094-.17.085.038-.188-.132-.141.188-.024.089-.17.08.179.188.033-.141.127m-.315,1.8-.127-.075-.137.066.028-.151-.1-.108.151-.019.071-.132.061.141.141.024-.1.1m-6.7,2.373-.127-.071-.127.061.028-.141-.1-.1.141-.019.066-.127.061.132.141.028-.108.094m9.427.72-.1-.052-.1.047.024-.108-.08-.075.113-.014.057-.094.047.094.118.024-.089.071" transform="translate(-202.465 -185.782)" fill="#ffffef" fill-rule="evenodd"/>
  <path id="Path_76" data-name="Path 76" d="M212.725,279.5l-.127-.071-.127.061.028-.141-.1-.1.141-.019.066-.127.061.132.141.028-.108.094" transform="translate(-202.444 -266.018)" fill="#ffffef" fill-rule="evenodd"/>
  <path id="Path_77" data-name="Path 77" d="M212.725,242.146l-.127-.071-.127.061L212.5,242l-.1-.1.141-.019.066-.127.061.132.141.028L212.7,242m1.992.141-.122-.066-.127.061.028-.141-.1-.1.141-.019.066-.127.061.132.141.024-.108.1m-.226.8-.122-.071-.127.066.028-.141-.1-.108.141-.019.066-.127.061.132.141.028-.108.094m4.115-1.045-.122-.075-.132.066.028-.141-.094-.108.141-.014.066-.127.057.132.141.024-.1.1m-1.182.141-.127-.071-.127.066.028-.141-.094-.108.141-.014.066-.132.057.137.141.024-.1.1m-3.24-.273-.08-.047-.08.038.019-.089-.061-.066.089-.009.038-.08.038.085.089.014-.066.061m7.9,2.138-.122-.071-.127.066.028-.141-.1-.108.141-.019.066-.127.061.132.141.028-.108.094m-.979.283-.1-.066-.108.057.024-.122-.08-.085.118-.014.057-.108.047.113.118.019-.089.085m.49.108-.094-.057-.1.047.019-.108-.075-.08.108-.014.052-.094.047.094.108.024-.08.075m1.37-1.074-.094-.047-.094.047.024-.108-.075-.08.108-.014.047-.094.047.1.1.019-.075.075m-1.827,1.968-.118-.066-.127.057.028-.132-.094-.094.141-.014.061-.118.057.122.141.024-.108.089m.028.669-.113-.066-.113.061.028-.132-.089-.094.127-.019.057-.118.052.122.127.024-.094.094m-.895-1.088-.089-.057-.094.047.019-.1-.071-.08.1-.009.047-.094.047.094.1.019-.075.075m-.838.108-.094-.057-.094.047.024-.1-.075-.08.108-.009.047-.094.047.094.1.019-.075.075m-1.431-1.158-.094-.052-.094.047.024-.108-.075-.075.1-.014.047-.094.047.094.1.024-.075.071m.174,2.684-.075-.042-.085.042.019-.094-.061-.066.089-.009.042-.08.038.085.089.014-.066.061m-2.175-4.078-.188-.108-.188.094.042-.212-.151-.155.212-.028.1-.188.089.2.207.038-.155.146" transform="translate(-202.468 -228.668)" fill="#ffffef" fill-rule="evenodd"/>
  <path id="Path_78" data-name="Path 78" d="M214.367,186.4a5.866,5.866,0,0,0,.273-.932,14.726,14.726,0,0,0-11.24-3.941,5.862,5.862,0,0,0-.4.984A14.374,14.374,0,0,1,214.367,186.4Z" transform="translate(-193.511 -172.99)" fill="#fff" fill-rule="evenodd"/>
  <path id="Path_79" data-name="Path 79" d="M270.3,189.127l.108.061a.16.16,0,0,0-.014.1.141.141,0,0,0,.066.08.135.135,0,0,0,.094.033.073.073,0,0,0,.061-.033.061.061,0,0,0,.009-.042.109.109,0,0,0-.024-.047.575.575,0,0,0-.071-.085.363.363,0,0,1-.085-.141.174.174,0,0,1,.094-.207.179.179,0,0,1,.108-.009.33.33,0,0,1,.122.057.279.279,0,0,1,.122.151.193.193,0,0,1-.028.155l-.113-.071a.1.1,0,0,0,.009-.08.106.106,0,0,0-.056-.066.151.151,0,0,0-.085-.033.047.047,0,0,0-.042.024.054.054,0,0,0,0,.047.29.29,0,0,0,.075.1.718.718,0,0,1,.094.118.184.184,0,0,1-.014.2.193.193,0,0,1-.089.071.188.188,0,0,1-.113.014.365.365,0,0,1-.132-.061.277.277,0,0,1-.127-.155.254.254,0,0,1,.028-.188Zm-.546-.358.118.061a.16.16,0,0,0-.009.1.141.141,0,0,0,.066.075.135.135,0,0,0,.094.028.068.068,0,0,0,.061-.038.061.061,0,0,0,.009-.038.075.075,0,0,0-.024-.047q-.036-.044-.075-.085a.329.329,0,0,1-.094-.132.174.174,0,0,1,.019-.146.169.169,0,0,1,.075-.066.179.179,0,0,1,.1-.014.329.329,0,0,1,.122.047.277.277,0,0,1,.127.146.193.193,0,0,1-.019.16l-.118-.066a.1.1,0,0,0,.009-.08.134.134,0,0,0-.061-.066.151.151,0,0,0-.089-.028.047.047,0,0,0-.038.024.054.054,0,0,0,0,.047.329.329,0,0,0,.08.1.528.528,0,0,1,.094.113.184.184,0,0,1,0,.2.2.2,0,0,1-.085.075.188.188,0,0,1-.113.014.376.376,0,0,1-.137-.052.282.282,0,0,1-.132-.151A.254.254,0,0,1,269.754,188.769Zm-.669-.179.344-.565.414.259-.057.094-.3-.188-.075.127.283.174-.061.094-.283-.174-.094.155.315.188-.057.094-.424-.259Zm-.975-.8.052-.094.254.127-.118.235a.435.435,0,0,1-.141.009.443.443,0,0,1-.155-.047.363.363,0,0,1-.141-.122.282.282,0,0,1-.047-.165.4.4,0,0,1,.047-.174.377.377,0,0,1,.122-.141.284.284,0,0,1,.32,0,.271.271,0,0,1,.146.132.235.235,0,0,1,.014.165l-.127-.038a.141.141,0,0,0-.009-.094.151.151,0,0,0-.075-.066.179.179,0,0,0-.146-.014.22.22,0,0,0-.122.122.258.258,0,0,0-.033.179.174.174,0,0,0,.094.113.159.159,0,0,0,.08.024.282.282,0,0,0,.085,0l.038-.075Zm-4.247-1.05.094-.659.2.033.052.461.184-.424.2.028-.094.65-.127-.019.08-.513-.207.494-.127-.019-.052-.532-.075.518Zm-.664-.08.061-.659.485.047-.009.113-.353-.033-.014.141.33.033-.014.113-.33-.033-.014.179.367.033-.009.113Z" transform="translate(-250.882 -177.289)" fill="#309e3a"/>
  <g id="Group_17" data-name="Group 17" transform="translate(10.146 8.628)">
    <path id="Path_80" data-name="Path 80" d="M216.477,184.439a.434.434,0,0,1,.033-.17.316.316,0,0,1,.066-.089.254.254,0,0,1,.085-.057.493.493,0,0,1,.141-.024.334.334,0,0,1,.235.094.348.348,0,0,1,.075.259.341.341,0,0,1-.094.25.306.306,0,0,1-.235.08.311.311,0,0,1-.226-.094A.344.344,0,0,1,216.477,184.439Z" transform="translate(-216.476 -184.1)" fill="#309e3a"/>
    <path id="Path_81" data-name="Path 81" d="M219.4,186.724a.268.268,0,0,0,.047.17.168.168,0,0,0,.132.061.165.165,0,0,0,.132-.052.284.284,0,0,0,.052-.174.229.229,0,0,0-.047-.17.165.165,0,0,0-.127-.061.17.17,0,0,0-.132.057A.252.252,0,0,0,219.4,186.724Z" transform="translate(-219.262 -186.385)" fill="#f7ffff"/>
  </g>
  <g id="Group_18" data-name="Group 18" transform="translate(10.921 8.647)">
    <path id="Path_82" data-name="Path 82" d="M233,185.159l.009-.659h.283a.385.385,0,0,1,.151.024.138.138,0,0,1,.075.061.2.2,0,0,1,.028.108.179.179,0,0,1-.047.122.212.212,0,0,1-.127.057l.071.057a.533.533,0,0,1,.071.108l.08.132h-.16l-.094-.151-.066-.094a.1.1,0,0,0-.042-.028.235.235,0,0,0-.066-.009h-.028v.273Z" transform="translate(-233 -184.5)" fill="#309e3a"/>
    <path id="Path_83" data-name="Path 83" d="M236,187.07h.094a.342.342,0,0,0,.122-.009c.014,0,.028-.014.038-.024a.08.08,0,0,0,.014-.047c0-.028,0-.047-.019-.057a.08.08,0,0,0-.047-.028h-.094l-.108,0v.17Z" transform="translate(-235.859 -186.787)" fill="#fff"/>
  </g>
  <g id="Group_19" data-name="Group 19" transform="translate(11.638 8.68)">
    <path id="Path_84" data-name="Path 84" d="M248.333,185.2l.245.014a.415.415,0,0,1,.122.014.221.221,0,0,1,.094.066.282.282,0,0,1,.057.113.4.4,0,0,1,.014.155.438.438,0,0,1-.024.141.289.289,0,0,1-.08.113.235.235,0,0,1-.094.047.423.423,0,0,1-.118.009l-.25-.014Z" transform="translate(-248.3 -185.2)" fill="#309e3a"/>
    <path id="Path_85" data-name="Path 85" d="M251.224,187.7l-.024.438h.179a.078.078,0,0,0,.057-.024.151.151,0,0,0,.038-.061.392.392,0,0,0,.019-.122l0-.118a.151.151,0,0,0-.038-.066.127.127,0,0,0-.057-.033.614.614,0,0,0-.108-.014Z" transform="translate(-251.063 -187.582)" fill="#fff"/>
  </g>
  <g id="Group_20" data-name="Group 20" transform="translate(14.886 9.214)">
    <path id="Path_86" data-name="Path 86" d="M317.6,197.24l.155-.64.207.047.151.047a.16.16,0,0,1,.075.089.2.2,0,0,1,.009.132.2.2,0,0,1-.047.094.184.184,0,0,1-.141.066.72.72,0,0,1-.141-.024l-.08-.024-.056.245Z" transform="translate(-317.6 -196.6)" fill="#309e3a"/>
    <path id="Path_87" data-name="Path 87" d="M322.238,199.6l-.038.179.071.019a.343.343,0,0,0,.1.014.089.089,0,0,0,.075-.071.129.129,0,0,0-.009-.061.094.094,0,0,0-.047-.042l-.089-.024-.061-.014Z" transform="translate(-321.983 -199.459)" fill="#fff"/>
  </g>
  <g id="Group_21" data-name="Group 21" transform="translate(15.495 9.416)">
    <path id="Path_88" data-name="Path 88" d="M330.6,201.522l.221-.622.259.094a.574.574,0,0,1,.141.066.139.139,0,0,1,.047.085.279.279,0,0,1,0,.108.208.208,0,0,1-.085.1.228.228,0,0,1-.141.014.252.252,0,0,1,.047.075l.038.127.028.146-.146-.052-.047-.17a.915.915,0,0,0-.033-.113.1.1,0,0,0-.028-.038.1.1,0,0,0-.061-.033l-.024-.009-.094.264Z" transform="translate(-330.6 -200.9)" fill="#309e3a"/>
    <path id="Path_89" data-name="Path 89" d="M335.9,204.255l.089.033a.408.408,0,0,0,.118.033.052.052,0,0,0,.042-.014.069.069,0,0,0,.028-.042.06.06,0,0,0,0-.057.08.08,0,0,0-.038-.042l-.094-.033-.094-.033-.057.155Z" transform="translate(-335.65 -203.949)" fill="#fff"/>
  </g>
  <g id="Group_22" data-name="Group 22" transform="translate(16.242 9.758)">
    <path id="Path_90" data-name="Path 90" d="M346.558,208.454a.424.424,0,0,1,.08-.151.311.311,0,0,1,.085-.071.282.282,0,0,1,.094-.033.4.4,0,0,1,.146.019.306.306,0,0,1,.2.155.37.37,0,0,1,.009.268.348.348,0,0,1-.16.212.293.293,0,0,1-.245.019.311.311,0,0,1-.2-.155A.344.344,0,0,1,346.558,208.454Z" transform="translate(-346.537 -208.2)" fill="#309e3a"/>
    <path id="Path_91" data-name="Path 91" d="M349.477,210.877a.258.258,0,0,0,0,.179.18.18,0,0,0,.108.094.169.169,0,0,0,.141-.019.231.231,0,0,0,.1-.151.222.222,0,0,0,0-.174.165.165,0,0,0-.1-.094.169.169,0,0,0-.141.014A.248.248,0,0,0,349.477,210.877Z" transform="translate(-349.324 -210.585)" fill="#fff"/>
  </g>
  <g id="Group_23" data-name="Group 23" transform="translate(17.543 10.343)">
    <path id="Path_92" data-name="Path 92" d="M374.3,221.284l.3-.584.25.127a.47.47,0,0,1,.127.089.121.121,0,0,1,.038.089.194.194,0,0,1-.019.1.179.179,0,0,1-.094.094.261.261,0,0,1-.146-.009.4.4,0,0,1,.038.08.616.616,0,0,1,.019.132l.009.151-.141-.071-.019-.174a.948.948,0,0,0-.014-.118.094.094,0,0,0-.024-.047l-.056-.033-.024-.014-.127.245-.118-.061Z" transform="translate(-374.3 -220.7)" fill="#309e3a"/>
    <path id="Path_93" data-name="Path 93" d="M380.5,224.151l.089.047a.466.466,0,0,0,.108.047.085.085,0,0,0,.047-.009c.014,0,.024-.019.033-.038a.081.081,0,0,0,.009-.057.094.094,0,0,0-.033-.047q-.041-.025-.085-.047l-.094-.047Z" transform="translate(-380.208 -223.845)" fill="#fff"/>
  </g>
  <g id="Group_24" data-name="Group 24" transform="translate(19.902 11.956)">
    <path id="Path_94" data-name="Path 94" d="M424.685,255.259a.419.419,0,0,1,.118-.122.311.311,0,0,1,.1-.042.259.259,0,0,1,.1,0,.361.361,0,0,1,.132.057.311.311,0,0,1,.141.207.37.37,0,0,1-.066.259.344.344,0,0,1-.212.155.306.306,0,0,1-.245-.052.311.311,0,0,1-.141-.207A.348.348,0,0,1,424.685,255.259Z" transform="translate(-424.615 -255.089)" fill="#309e3a"/>
    <path id="Path_95" data-name="Path 95" d="M427.5,257.861a.212.212,0,0,0-.052.17.169.169,0,0,0,.075.118.158.158,0,0,0,.141.028.249.249,0,0,0,.137-.113.242.242,0,0,0,.052-.17.182.182,0,0,0-.075-.122.154.154,0,0,0-.141-.024.251.251,0,0,0-.141.113Z" transform="translate(-427.308 -257.616)" fill="#fff"/>
  </g>
  <path id="Path_96" data-name="Path 96" d="M301.8,195.161l.108-.461.339.08-.014.075-.25-.057-.024.1.231.052-.019.08-.231-.057-.028.127.259.061-.019.075Z" transform="translate(-287.654 -185.574)" fill="#309e3a"/>
</svg>
