<svg id="gb" xmlns="http://www.w3.org/2000/svg" width="30" height="22.5" viewBox="0 0 30 22.5">
  <path id="Path_64" data-name="Path 64" d="M0,0H30V22.5H0Z" fill="#012169"/>
  <path id="Path_65" data-name="Path 65" d="M3.516,0,14.953,8.484,26.344,0H30V2.906L18.75,11.3,30,19.641V22.5H26.25L15,14.109,3.8,22.5H0V19.688l11.2-8.344L0,3V0Z" fill="#fff"/>
  <path id="Path_66" data-name="Path 66" d="M19.875,13.172,30,20.625V22.5L17.3,13.172Zm-8.625.938.281,1.641-9,6.75H0ZM30,0V.141L18.328,8.953l.094-2.062L27.656,0ZM0,0,11.2,8.25H8.391L0,1.969Z" fill="#c8102e"/>
  <path id="Path_67" data-name="Path 67" d="M11.3,0V22.5h7.5V0ZM0,7.5V15H30V7.5Z" fill="#fff"/>
  <path id="Path_68" data-name="Path 68" d="M0,9.047v4.5H30v-4.5ZM12.8,0V22.5h4.5V0Z" fill="#c8102e"/>
</svg>
