<svg xmlns="http://www.w3.org/2000/svg" width="300.068" height="49.055" viewBox="0 0 300.068 49.055"><g id="TPC_Logo" data-name="TPC Logo" transform="translate(-1254 298)"><path id="Path_24" data-name="Path 24" d="M761.884,0V16.356l8.173-8.178Z" transform="translate(767.662 -298)" fill="#ff9100"></path><path id="Path_25" data-name="Path 25" d="M761.885,45.211V61.566l8.173-8.177Z" transform="translate(767.662 -326.861)" fill="#29294d"></path><path id="Path_26" data-name="Path 26" d="M761.884,106.778l8.173-8.177-8.173-8.178Z" transform="translate(767.662 -355.722)" fill="#ff9100"></path><path id="Path_27" data-name="Path 27" d="M784.479,22.606V38.961l8.174-8.177Z" transform="translate(753.242 -312.43)" fill="#ff9100"></path><path id="Path_28" data-name="Path 28" d="M784.479,67.817V84.172l8.174-8.178Z" transform="translate(753.242 -341.292)" fill="#ff9100"></path><path id="Path_29" data-name="Path 29" d="M739.289,22.606V38.961l8.174-8.177Z" transform="translate(782.084 -312.43)" fill="#ff9100"></path><path id="Path_30" data-name="Path 30" d="M739.289,67.8V84.159l8.174-8.178Z" transform="translate(782.084 -341.283)" fill="#ff9100"></path><path id="Path_31" data-name="Path 31" d="M807.047,61.553l8.183-8.167L807.066,45.2Z" transform="translate(738.837 -326.852)" fill="#29294d"></path><path id="Path_32" data-name="Path 32" d="M716.7,45.211V61.566l8.173-8.177Z" transform="translate(796.504 -326.861)" fill="#29294d"></path><path id="Path_33" data-name="Path 33" d="M219.1,32.372h13.523v3.58h-9.551v5.714h8.206v3.547h-8.206v6.8h9.715v3.613H219.1Z" transform="translate(1114.139 -318.666)" fill="#ff9100"></path><path id="Path_34" data-name="Path 34" d="M337.457,51.913c5.941,0,9.223-3.12,9.223-7.915,0-4.828-3.283-7.915-9.223-7.915h-2.1v15.83Zm-6.138-19.541h5.613c8.961,0,13.917,4.664,13.917,11.626a10.861,10.861,0,0,1-5.744,9.886c-2.462,1.412-5.055,1.74-8.173,1.74h-5.613Z" transform="translate(1042.508 -318.666)" fill="#ff9100"></path><path id="Path_35" data-name="Path 35" d="M395.741,32.372h13.523v3.58h-9.551v5.714h8.205v3.547h-8.205v6.8h9.716v3.613H395.741Z" transform="translate(1001.386 -318.666)" fill="#ff9100"></path><path id="Path_36" data-name="Path 36" d="M451.077,42.98c3.611,0,5.417-1.345,5.417-3.711,0-2.562-1.937-3.579-5.778-3.579h-1.51v7.29ZM445.2,32.372h5.383c2.954,0,5.252.2,7.254,1.609a6.094,6.094,0,0,1,2.724,4.959c0,3.054-1.805,5.353-5.088,6.47l7.516,10.214h-4.76l-7.057-9.656h-1.97v9.656h-4Z" transform="translate(969.813 -318.666)" fill="#ff9100"></path><path id="Path_37" data-name="Path 37" d="M505.932,51.443c2.527,0,4.1-1.412,4.1-3.252,0-1.741-1.083-2.857-3.414-4.236L504.882,42.9c-3.217-1.9-4.891-3.711-4.891-6.569,0-3.58,2.79-6.141,7.057-6.141a12.865,12.865,0,0,1,5.843,1.412l-.131,3.711a12.1,12.1,0,0,0-5.416-1.839c-2.2,0-3.446,1.084-3.446,2.66,0,1.445,1.05,2.365,3.184,3.614l1.673.985c3.546,2.1,5.384,4.139,5.384,7.357,0,4.04-3.02,6.93-8.009,6.93a14.563,14.563,0,0,1-6.269-1.379l-.361-4.565c2.4,1.543,4.464,2.364,6.433,2.364" transform="translate(935.154 -317.275)" fill="#ff9100"></path><path id="Path_38" data-name="Path 38" d="M550.919,32.372h4.037v9.262H566.05V32.372h4V55.625h-4V45.214H554.956V55.625h-4.037Z" transform="translate(902.33 -318.666)" fill="#ff9100"></path><rect id="Rectangle_2" data-name="Rectangle 2" width="4.103" height="23.252" transform="translate(1477.044 -286.294)" fill="#ff9100"></rect><path id="Path_39" data-name="Path 39" d="M648.492,43.111c3.611,0,5.417-1.346,5.417-3.711,0-2.562-1.937-3.58-5.777-3.58h-1.477v7.291Zm-5.875-10.739H648c2.987,0,5.284.263,7.254,1.675a6.407,6.407,0,0,1,2.724,5.189c0,4.466-3.414,7.324-9.584,7.324h-1.74v9.064h-4.037Z" transform="translate(843.797 -318.666)" fill="#ff9100"></path><path id="Path_40" data-name="Path 40" d="M0,32.262v3.547H7.845V55.515h4.1V35.809H19.76V32.262Z" transform="translate(1254 -318.596)" fill="#29294d"></path><path id="Path_41" data-name="Path 41" d="M69.506,43c3.611,0,5.416-1.346,5.416-3.711,0-2.562-1.936-3.58-5.777-3.58H67.668V43Zm-5.875-10.74h5.383c2.987,0,5.284.263,7.254,1.676a6.408,6.408,0,0,1,2.725,5.189c0,4.466-3.414,7.324-9.585,7.324h-1.74v9.064H63.631Z" transform="translate(1213.388 -318.595)" fill="#29294d"></path><path id="Path_42" data-name="Path 42" d="M172.936,56.2V50c0-3.19-.336-5.843-1.781-8.362a11.81,11.81,0,0,0-2.074-2.656v9.194c.037.417.058.845.058,1.287v.973l.006,9.407h13.981V56.2Z" transform="translate(1146.069 -322.887)" fill="#ff9100"></path><path id="Path_43" data-name="Path 43" d="M117.577,43.1c0-5.054,3.259-8.508,7.7-8.6a8.014,8.014,0,0,1,4.737,1.476V32.019a12.439,12.439,0,0,0-4.837-.945l-.078,0c-6.534,0-11.475,5.1-11.475,12.056a11.985,11.985,0,0,0,4.367,9.569A11.111,11.111,0,0,0,125,55.153,11.473,11.473,0,0,0,130.009,54v-3.99a8.425,8.425,0,0,1-4.785,1.523c-4.464,0-7.648-3.547-7.648-8.44" transform="translate(1181.483 -317.836)" fill="#29294d"></path><path id="Path_44" data-name="Path 44" d="M132.107,57.332c-4.335,0-7.427-3.444-7.427-8.2,0-4.908,3.165-8.262,7.473-8.352a7.749,7.749,0,0,1,4.837,1.6v-.375a8.014,8.014,0,0,0-4.737-1.477c-4.436.093-7.7,3.547-7.7,8.6,0,4.894,3.184,8.44,7.648,8.44a8.427,8.427,0,0,0,4.785-1.523V55.7a8.272,8.272,0,0,1-4.883,1.634" transform="translate(1174.501 -323.875)" fill="#29294d"></path><path id="Path_45" data-name="Path 45" d="M273.7,30.284h-.328L261.95,54.292h4.136l7.254-16.126,7.089,16.126h4.3Z" transform="translate(1086.788 -317.333)" fill="#ff9100"></path></g></svg>