<svg xmlns="http://www.w3.org/2000/svg" width="30" height="22.5" viewBox="0 0 30 22.5">
  <g id="Globe_Grey_Icon" data-name="Globe Grey Icon" transform="translate(-1655 -19.25)">
    <path id="Path_173" data-name="Path 173" d="M0,0V22.5H30V0Z" transform="translate(1655 19.25)" fill="#c9c9c9"/>
    <path id="language_FILL0_wght400_GRAD0_opsz48_1_" data-name="language_FILL0_wght400_GRAD0_opsz48 (1)" d="M87.036,190.072a6.9,6.9,0,0,1-2.762-.554,7.105,7.105,0,0,1-2.234-1.5,6.959,6.959,0,0,1-1.5-2.243A7.055,7.055,0,0,1,80,183a6.928,6.928,0,0,1,.545-2.753,7.01,7.01,0,0,1,1.5-2.225,6.867,6.867,0,0,1,2.234-1.486,7.376,7.376,0,0,1,5.523,0,6.867,6.867,0,0,1,2.234,1.486,7.01,7.01,0,0,1,1.5,2.225A6.927,6.927,0,0,1,94.072,183a7.055,7.055,0,0,1-.545,2.77,6.959,6.959,0,0,1-1.5,2.243,7.105,7.105,0,0,1-2.234,1.5A6.9,6.9,0,0,1,87.036,190.072Zm0-1.02a5.854,5.854,0,0,0,1.029-1.451,8.736,8.736,0,0,0,.677-1.944H85.347a8.92,8.92,0,0,0,.66,1.9A5.994,5.994,0,0,0,87.036,189.051Zm-1.5-.211a8.411,8.411,0,0,1-.756-1.442,10.537,10.537,0,0,1-.528-1.741H81.618a6.308,6.308,0,0,0,1.548,1.961A7.729,7.729,0,0,0,85.541,188.84Zm3.008-.018a7.042,7.042,0,0,0,2.278-1.214,6.3,6.3,0,0,0,1.627-1.952H89.833a12.742,12.742,0,0,1-.536,1.724A7.984,7.984,0,0,1,88.549,188.823ZM81.266,184.6h2.8q-.053-.475-.062-.853T83.993,183q0-.44.018-.783t.07-.765H81.266a5.129,5.129,0,0,0-.167.756,6.165,6.165,0,0,0-.044.792,6.816,6.816,0,0,0,.044.818A4.958,4.958,0,0,0,81.266,184.6Zm3.887,0h3.782q.07-.545.088-.888t.018-.712q0-.352-.018-.677t-.088-.871H85.154q-.07.545-.088.871t-.018.677q0,.369.018.712T85.154,184.6Zm4.837,0h2.814a4.958,4.958,0,0,0,.167-.783,6.815,6.815,0,0,0,.044-.818,6.163,6.163,0,0,0-.044-.792,5.129,5.129,0,0,0-.167-.756h-2.8q.053.616.07.941T90.1,183q0,.387-.026.73T89.991,184.6Zm-.176-4.2h2.638a5.7,5.7,0,0,0-1.592-2.023,6.065,6.065,0,0,0-2.331-1.143,7.668,7.668,0,0,1,.748,1.407A11.442,11.442,0,0,1,89.815,180.4Zm-4.468,0H88.76a6.861,6.861,0,0,0-.651-1.8,7.2,7.2,0,0,0-1.073-1.539,3.868,3.868,0,0,0-.95,1.249A11.357,11.357,0,0,0,85.347,180.4Zm-3.729,0h2.656a9.9,9.9,0,0,1,.493-1.7,8.35,8.35,0,0,1,.756-1.451,5.8,5.8,0,0,0-3.9,3.149Z" transform="translate(1583 -152.75)" fill="#292a4d"/>
  </g>
</svg>
