<svg id="tr" xmlns="http://www.w3.org/2000/svg" width="30" height="22.5" viewBox="0 0 30 22.5">
  <path id="Path_148" data-name="Path 148" d="M0,0H30V22.5H0Z" fill="#e30a17" fill-rule="evenodd"/>
  <path id="Path_149" data-name="Path 149" d="M174.476,133.239a5.739,5.739,0,1,1-5.738-5.639A5.689,5.689,0,0,1,174.476,133.239Z" transform="translate(-155.375 -121.639)" fill="#fff" fill-rule="evenodd"/>
  <path id="Path_150" data-name="Path 150" d="M227.076,156.11a4.589,4.589,0,1,1-4.586-4.51,4.546,4.546,0,0,1,4.586,4.51Z" transform="translate(-207.701 -144.51)" fill="#e30a17" fill-rule="evenodd"/>
  <path id="Path_151" data-name="Path 151" d="M390.389,191.4l-.047,2.083-1.942.527,1.919.682-.047,1.914,1.246-1.5,1.891.658-1.091-1.6,1.331-1.594-2.046.564-1.213-1.74Z" transform="translate(-370.207 -182.437)" fill="#fff" fill-rule="evenodd"/>
</svg>
